<svg xmlns="http://www.w3.org/2000/svg" viewBox="0 0 718 251" width="801" height="280">
	<style>
		tspan { white-space:pre }
		.shp0 { fill: #007a5a } 
	</style>
	<path id="Layer" fill-rule="evenodd" class="shp0" d="M218.19 27C218.95 27 219.71 27.15 220.41 27.44C221.12 27.73 221.76 28.16 222.3 28.7C222.84 29.24 223.26 29.88 223.56 30.59C223.85 31.29 224 32.05 224 32.81L224 137.44C224 138.2 223.85 138.96 223.56 139.66C223.26 140.37 222.84 141.01 222.3 141.55C221.76 142.09 221.12 142.51 220.41 142.81C219.71 143.1 218.95 143.25 218.19 143.25L206.56 143.25C205.02 143.25 203.54 142.64 202.45 141.55C201.36 140.46 200.75 138.98 200.75 137.44C200.75 135.89 201.36 134.42 202.45 133.33C203.54 132.24 205.02 131.62 206.56 131.62L212.37 131.62L212.37 38.62L49.62 38.62L49.62 131.62L55.44 131.62C56.98 131.62 58.46 132.24 59.55 133.33C60.64 134.42 61.25 135.89 61.25 137.44C61.25 138.98 60.64 140.46 59.55 141.55C58.46 142.64 56.98 143.25 55.44 143.25L43.81 143.25C43.05 143.25 42.29 143.1 41.59 142.81C40.88 142.52 40.24 142.09 39.7 141.55C39.16 141.01 38.73 140.37 38.44 139.66C38.15 138.96 38 138.2 38 137.44L38 32.81C38 32.05 38.15 31.29 38.44 30.59C38.73 29.88 39.16 29.24 39.7 28.7C40.24 28.16 40.88 27.73 41.59 27.44C42.29 27.15 43.05 27 43.81 27L218.19 27ZM115.94 120C115.6 120 115.25 119.98 114.91 119.93C114.57 119.89 114.23 119.82 113.89 119.74C113.56 119.65 113.23 119.55 112.91 119.42C112.59 119.29 112.27 119.15 111.97 118.98C111.34 118.64 110.75 118.21 110.23 117.71C109.71 117.21 109.26 116.64 108.89 116.02C108.52 115.4 108.23 114.73 108.04 114.03C107.85 113.34 107.75 112.62 107.75 111.89L107.75 58.36C107.75 57.63 107.85 56.91 108.04 56.22C108.23 55.52 108.52 54.85 108.89 54.23C109.26 53.61 109.71 53.04 110.23 52.54C110.75 52.04 111.34 51.61 111.97 51.27C112.62 50.91 113.31 50.65 114.03 50.48C114.75 50.31 115.48 50.23 116.22 50.26C116.96 50.28 117.69 50.41 118.39 50.63C119.1 50.85 119.77 51.16 120.39 51.56L162.14 78.33C163.28 79.06 164.23 80.06 164.88 81.25C165.53 82.44 165.87 83.77 165.87 85.13C165.87 86.49 165.53 87.82 164.87 89.01C164.22 90.2 163.27 91.2 162.13 91.92L120.4 118.69C120.07 118.91 119.72 119.09 119.36 119.26C119.01 119.42 118.64 119.56 118.26 119.67C117.89 119.78 117.5 119.86 117.11 119.92C116.73 119.97 116.33 120 115.94 120ZM119.37 64.71L119.37 105.54L151.2 85.12L119.37 64.71ZM84.5 125.81C86.79 125.81 89.06 126.27 91.17 127.14C93.28 128.02 95.21 129.3 96.83 130.92C98.44 132.54 99.73 134.46 100.61 136.58C101.48 138.69 101.94 140.96 101.94 143.25L101.94 154.87L113.56 154.87L113.56 143.25C113.56 138.62 115.4 134.19 118.67 130.92C121.94 127.65 126.38 125.81 131 125.81C135.63 125.81 140.06 127.65 143.33 130.92C146.6 134.19 148.44 138.62 148.44 143.25L148.44 154.87L160.06 154.87L160.06 143.25C160.06 138.62 161.9 134.19 165.17 130.92C168.44 127.65 172.88 125.81 177.5 125.81C182.13 125.81 186.56 127.65 189.83 130.92C193.1 134.19 194.94 138.62 194.94 143.25L194.94 154.87L200.75 154.87C202.29 154.87 203.77 155.49 204.86 156.58C205.95 157.67 206.56 159.14 206.56 160.69C206.56 162.23 205.95 163.71 204.86 164.8C203.77 165.89 202.29 166.5 200.75 166.5L61.25 166.5C59.71 166.5 58.23 165.89 57.14 164.8C56.05 163.71 55.44 162.23 55.44 160.69C55.44 159.14 56.05 157.67 57.14 156.58C58.23 155.49 59.71 154.87 61.25 154.87L67.06 154.87L67.06 143.25C67.07 140.96 67.52 138.69 68.4 136.58C69.27 134.46 70.56 132.54 72.18 130.92C73.79 129.3 75.72 128.02 77.83 127.14C79.94 126.27 82.21 125.81 84.5 125.81ZM90.31 154.87L90.31 143.25C90.31 141.71 89.7 140.23 88.61 139.14C87.52 138.05 86.04 137.44 84.5 137.44C82.96 137.44 81.48 138.05 80.39 139.14C79.3 140.23 78.69 141.71 78.69 143.25L78.69 154.87L90.31 154.87ZM171.69 154.87L183.31 154.87L183.31 143.25C183.31 141.71 182.7 140.23 181.61 139.14C180.52 138.05 179.04 137.44 177.5 137.44C175.96 137.44 174.48 138.05 173.39 139.14C172.3 140.23 171.69 141.71 171.69 143.25L171.69 154.87ZM125.19 154.87L136.81 154.87L136.81 143.25C136.81 141.71 136.2 140.23 135.11 139.14C134.02 138.05 132.54 137.44 131 137.44C129.46 137.44 127.98 138.05 126.89 139.14C125.8 140.23 125.19 141.71 125.19 143.25L125.19 154.87ZM222.3 203.08C223.39 204.17 224 205.64 224 207.19C224 208.73 223.39 210.21 222.3 211.3C221.21 212.39 219.73 213 218.19 213L43.81 213C42.27 213 40.79 212.39 39.7 211.3C38.61 210.21 38 208.73 38 207.19C38 205.64 38.61 204.17 39.7 203.08C40.79 201.99 42.27 201.37 43.81 201.37L43.81 189.75C43.81 185.12 45.65 180.69 48.92 177.42C52.19 174.15 56.63 172.31 61.25 172.31C65.88 172.31 70.31 174.15 73.58 177.42C76.85 180.69 78.69 185.12 78.69 189.75L78.69 201.37L90.31 201.37L90.31 189.75C90.31 185.12 92.15 180.69 95.42 177.42C98.69 174.15 103.13 172.31 107.75 172.31C112.38 172.31 116.81 174.15 120.08 177.42C123.35 180.69 125.19 185.12 125.19 189.75L125.19 201.37L136.81 201.37L136.81 189.75C136.81 185.12 138.65 180.69 141.92 177.42C145.19 174.15 149.63 172.31 154.25 172.31C158.88 172.31 163.31 174.15 166.58 177.42C169.85 180.69 171.69 185.12 171.69 189.75L171.69 201.37L183.31 201.37L183.31 189.75C183.31 185.12 185.15 180.69 188.42 177.42C191.69 174.15 196.13 172.31 200.75 172.31C205.37 172.31 209.81 174.15 213.08 177.42C216.35 180.69 218.19 185.12 218.19 189.75L218.19 201.37C219.73 201.37 221.21 201.99 222.3 203.08ZM55.44 201.37L67.06 201.37L67.06 189.75C67.06 188.21 66.45 186.73 65.36 185.64C64.27 184.55 62.79 183.94 61.25 183.94C59.71 183.94 58.23 184.55 57.14 185.64C56.05 186.73 55.44 188.21 55.44 189.75L55.44 201.37ZM113.56 201.37L113.56 189.75C113.56 188.21 112.95 186.73 111.86 185.64C110.77 184.55 109.29 183.94 107.75 183.94C106.21 183.94 104.73 184.55 103.64 185.64C102.55 186.73 101.94 188.21 101.94 189.75L101.94 201.37L113.56 201.37ZM160.06 201.37L160.06 189.75C160.06 188.21 159.45 186.73 158.36 185.64C157.27 184.55 155.79 183.94 154.25 183.94C152.71 183.94 151.23 184.55 150.14 185.64C149.05 186.73 148.44 188.21 148.44 189.75L148.44 201.37L160.06 201.37ZM206.56 201.37L206.56 189.75C206.56 188.21 205.95 186.73 204.86 185.64C203.77 184.55 202.29 183.94 200.75 183.94C199.21 183.94 197.73 184.55 196.64 185.64C195.55 186.73 194.94 188.21 194.94 189.75L194.94 201.37L206.56 201.37Z" />
	<path id="Someday " fill="#000000" d="M279.9 169.75L273.9 167.95L274.05 167.5Q274.05 166 271.5 165.85Q268.35 163.9 264.75 159.25Q261.15 154.45 260.25 151.9Q259.8 150.7 259.8 150.25Q259.8 149.5 260.4 149.2Q261 148.75 261.9 148.45Q262.8 148 263.25 147.85Q265.95 146.05 267.3 146.05Q268.8 146.05 269.85 148Q271.95 151.75 276.6 154.3Q281.25 156.7 286.95 156.7Q292.05 156.7 296.1 154.9Q300 153.1 300 149.65Q300 147.1 297.75 143.5Q297.45 142.6 296.7 141.85Q295.95 141.1 294.9 140.35Q292.5 138.55 289.65 135.7Q287.25 134.8 284.7 133.3L281.55 131.8Q277.8 130 273.15 126.1Q268.5 122.05 266.7 118.6Q263.4 115.45 263.4 109Q263.4 101.95 266.7 95.8Q268.5 91.75 275.4 83.35Q282.3 74.95 285.6 72.85L289.5 69.1Q289.65 68.5 289.95 68.5Q290.25 68.35 290.4 68.35Q290.85 68.05 293.55 67Q296.25 65.8 299.25 62.95Q308.4 58.45 315.45 56.65Q322.65 54.7 327.45 54.7Q333.3 55 338.25 58.9Q343.35 62.8 344.1 67.9Q344.4 69.4 344.4 70.3Q344.4 75.85 339.9 82.75Q335.4 89.65 330.3 92.5Q328.05 93.55 325.95 93.55Q323.4 93.55 321.75 92.2Q320.25 90.85 320.4 88.75Q320.4 87.4 321.3 85.75Q322.35 83.95 325.8 80.05Q330.9 72.55 330.9 69.25Q330.9 67 328.2 66.55Q326.55 66.1 319.2 67.9Q312 69.55 312 70.3Q312 70.45 311.85 70.9Q311.85 71.2 311.4 71.05Q310.8 70.9 302.85 76Q295.05 81.1 294.75 81.85Q294.6 82.6 293.55 83.5Q292.65 84.25 291.3 84.85Q288.6 86.5 286.35 89.35Q284.25 92.2 280.8 98.35Q279 100.9 277.8 103.9Q276.75 106.9 276.75 109.3Q276.75 110.95 277.2 112.15Q277.8 114.4 280.35 116.35Q283.05 118.15 290.55 122.65Q298.2 127 304.35 131.95Q310.5 136.75 311.85 139.6Q314.25 143.05 314.25 148.6Q314.25 152.95 313.05 156.85Q311.7 159.7 309.6 162.25Q307.5 164.65 305.85 164.5Q304.35 164.95 303.3 165.7Q302.25 166.3 301.5 166.6Q299.7 167.65 292.2 168.85Q284.85 169.9 279.9 169.75ZM337.95 158.95Q336.15 158.95 335.1 158.35Q334.05 157.75 332.1 156.1Q329.1 152.95 327.45 149.65Q325.8 146.2 326.25 143.65Q326.7 142.6 326.55 141.55Q326.55 140.5 326.55 140.2Q325.95 139.6 325.95 139.45Q325.95 139.15 326.25 139Q326.55 138.7 326.7 138.4Q327.6 138.4 327.3 136.75Q327 135.55 328.35 131.5Q329.7 127.45 331.8 124Q333.45 121.3 336.6 117.25Q339.9 113.2 342.45 111.1Q349.95 104.65 355.95 103.3Q358.95 102.55 361.8 102.55Q366.15 102.55 368.55 104.95Q371.85 106.3 373.35 108.85Q374.85 111.4 375.3 115.6Q375.45 116.5 375.45 118.6Q375.45 129.7 367.05 141.7Q363.6 146.65 360.15 149.65Q356.7 152.65 351.75 155.65Q349.05 157.45 346.05 158.05Q343.05 158.65 337.95 158.95ZM353.25 140.65Q356.1 138.1 357.3 135.55Q358.65 132.85 361.05 126.25Q361.95 124.9 361.95 120.85Q361.95 117.25 360.9 116.8Q360.15 116.2 359.1 116.2Q357.75 116.2 354.75 118.3Q349.5 122.8 345.9 127.75Q342.45 132.55 341.1 138.85Q340.95 139.45 340.95 140.65Q340.95 145.75 344.55 145.75Q348 145.75 353.25 140.65ZM453.9 156.55Q451.95 156.55 450.9 155.95Q449.7 155.5 447.75 153.85Q445.95 152.05 444.45 148.9Q443.1 145.6 443.1 141.1Q443.1 138.25 443.4 136.15Q443.85 133.9 443.85 133.3Q443.85 132.55 443.4 132.55Q439.5 132.55 426.45 146.8Q426 147.1 425.7 147.55Q423.9 148.9 422.4 150.4Q420.15 152.5 418.65 153.55Q417.3 154.45 415.65 154.6Q414.6 154.6 413.4 153.7L411.75 152.35Q411 151.9 410.4 150.7Q409.8 149.5 409.8 148.45L409.8 148L409.8 147.7L413.25 137.65Q417 129.4 417 127.9Q417 127.6 416.85 127.6Q415.5 127.45 412.8 130Q410.25 132.4 405.45 137.65L398.7 144.7Q397.5 145.9 392.25 151.9Q388.95 155.95 388.8 155.95Q385.5 155.95 382.8 153.4Q380.25 150.85 380.25 147.25Q380.25 145.45 380.85 142.45Q381.45 139.45 382.2 136.15Q382.5 134.95 382.8 133.45Q383.25 131.95 383.7 130Q384 128.5 384.3 126.7Q384.75 124.9 385.95 122.05Q387.15 119.05 389.4 113.8Q390 111.85 390 109.75Q390 108.7 389.85 107.8Q389.7 106.75 389.7 106.45Q389.7 104.2 391.8 102.7Q394.05 101.05 396.75 101.05Q400.65 101.05 402.6 103.9Q404.55 106.6 404.55 109.6Q404.55 112.15 403.35 114.55L401.7 118.6Q401.1 119.95 399.45 123.55Q397.95 127 397.95 127.75Q397.95 128.2 398.25 128.2L398.4 128.2Q399.15 128.2 400.8 126.55Q405.6 122.05 412.35 117.25Q419.25 112.3 422.25 111.4Q423.45 111.4 425.4 112.6Q427.35 113.8 428.85 115.9Q430.35 117.85 430.35 120.25L430.2 121.45Q430.05 122.05 428.85 126.55Q427.8 131.05 427.2 131.8Q430.05 128.5 437.1 123.7Q444.15 118.75 447.45 118.6Q452.4 118.6 453.9 122.65Q455.4 126.7 456 134.5Q456.6 141.85 457.65 144.4Q457.95 145.3 459.75 145.9Q461.55 146.5 462.6 147.4Q463.8 148.15 463.8 150.55Q463.8 153.85 460.8 155.2Q457.95 156.55 453.9 156.55ZM482.55 162.7Q465.45 162.7 465.45 143.2Q465.45 136.15 468.9 127.3Q472.5 118.3 477.75 111.25Q483.15 104.05 488.4 101.65Q491.25 100.15 495 100.15Q501.75 100.15 506.7 103.15Q511.8 106 511.8 114.1Q511.8 118.75 508.65 124.3Q505.5 129.85 500.7 133.75Q496.05 137.5 491.55 137.5Q484.8 137.5 480.15 133.15Q477.6 138.25 477.6 142.9Q477.6 146.65 478.5 148.75Q479.4 150.7 482.7 150.7Q485.85 150.7 487.8 149.8Q489.75 148.9 491.4 147.7Q493.05 146.5 493.95 145.9L494.55 145.6L494.4 145.6Q497.1 144.1 498.3 143.35Q499.65 142.45 500.55 142.15Q502.8 142.15 504.75 143.5Q506.7 144.85 506.7 146.8Q506.7 148.3 504 151.75Q501.3 155.05 498.45 156.4L496.65 157.3L496.8 157.3Q495.45 159.1 494.1 159.1L492.9 159.1Q492.3 160.3 488.85 161.5Q485.55 162.7 482.55 162.7ZM490.35 126.55Q494.55 126.55 497.25 122.95Q500.1 119.35 500.1 115.75Q500.1 114.1 499.2 112.75Q498.45 111.4 497.1 111.4Q494.55 111.4 491.4 113.8Q488.25 116.2 485.85 120.1L483.9 123.25Q484.5 122.95 484.8 122.95Q486 122.95 486.6 124Q487.2 125.05 487.95 125.8Q488.7 126.55 490.35 126.55ZM521.7 160.6Q518.25 160.15 515.7 155.95Q513.3 151.75 513.3 146.65L513.45 144.85Q514.05 139.6 515.7 135.1Q517.35 130.6 520.8 125.35Q523.2 121 529.65 115.9Q536.1 110.65 541.05 109Q544.65 107.65 547.65 107.65Q550.35 107.65 553.05 108.55Q555.15 109.6 556.35 109.6Q557.85 109.6 558.3 108.1Q558.75 107.35 559.5 105.25Q560.4 103 561.15 101.65L564.45 91.9L568.35 82.6L572.7 72.4Q576.6 64.75 580.05 64.75Q581.4 64.75 582.3 65.5Q584.4 67 585.45 68.5Q586.65 70 586.65 72.4Q586.65 74.35 585.3 77.8Q582.75 82.15 580.2 87.55L577.95 92.65Q573.9 102.25 573.15 104.2L571.95 108.25Q570.6 112.45 570 115.45Q568.8 121.9 567.9 121.9Q565.2 124.75 562.8 139.6Q562.2 143.2 562.2 153.4Q562.2 157 561.9 158.35Q561.6 159.7 560.7 159.85Q558.3 160.15 557.4 160.15Q553.95 160.15 552.15 158.2Q550.2 156.4 549.6 155.2Q549 153.85 549.15 152.05Q549.3 150.25 549.15 148.3Q549.15 146.2 549.3 145.15Q548.85 144.55 546.3 147.1Q544.95 148.45 542.85 150.1Q537.6 155.95 533.4 158.5Q529.35 160.9 524.85 160.9Q523.8 160.9 521.7 160.6ZM526.65 148Q529.05 148 531.3 146.35Q533.7 144.7 536.1 142.6Q538.5 140.35 539.55 139.3Q543.75 135.25 548.55 128.8Q553.5 122.35 553.5 121.15Q553.5 120.1 551.1 119.2Q548.85 118.3 547.35 118.75Q544.05 119.5 541.5 121.6Q539.1 123.55 535.2 128.35Q530.85 133.6 528.15 138.85Q525.6 143.95 525.6 146.5Q525.6 148 526.65 148ZM586.65 157.3Q584.1 157.9 580.5 154.6Q576.9 151.3 576.3 148.45Q576 146.95 576 145.9Q576 140.05 579.75 131.8Q583.5 123.4 589.8 116.05Q596.25 108.7 603.9 105.4Q607.05 103.75 607.95 103.75Q608.85 103.75 612 105.4Q615 106.15 616.8 107.05Q618.6 107.95 620.1 109.9Q622.05 113.8 622.95 119.5Q623.85 122.65 623.85 124Q623.85 125.2 622.95 126.1Q622.8 126.25 622.35 126.7Q622.05 127.15 622.05 127.45Q622.05 127.6 622.35 127.6Q622.35 127.75 622.2 128.35Q622.05 128.8 621.6 129.7Q619.8 135.4 619.8 138.55Q619.8 139.6 620.1 141.1Q621.6 145 623.85 145Q625.95 145 628.65 142.3Q630.9 140.8 633.15 140.8Q634.5 140.8 634.5 141.55Q634.65 141.7 635.1 142Q635.55 142.3 636 142.3Q636.6 142.3 636.6 143.65Q636.6 144.85 636 146.8Q635.55 148.75 634.8 149.95Q633.75 151 633.15 151.75Q632.55 152.5 632.55 152.95L630.3 155.05Q627.45 156.7 623.55 156.7Q619.5 156.7 617.1 155.05Q614.7 153.4 612.6 151Q610.5 148.45 609.9 146.5L609.15 145L604.8 147.85L601.05 151.75Q599.85 153.25 598.95 153.25L597.45 153.25Q597.45 154.3 593.25 155.8Q589.05 157.3 586.65 157.3ZM589.8 144.7Q591.45 144.7 596.55 140.95Q601.8 137.05 603.6 134.8Q604.2 134.05 605.1 132.7Q606.15 131.2 606.9 130.45Q609.3 127.6 610.35 125.95Q611.55 124.15 611.55 122.5Q611.55 121.3 610.5 119.2Q609.9 117.4 608.7 117.4Q608.1 117.4 605.25 118.45Q602.4 120.1 598.5 125.2Q594.75 130.3 591.9 135.55Q589.05 140.8 589.05 143.2Q589.05 143.65 589.35 144.1Q589.65 144.55 589.8 144.7ZM649.05 195.7Q648 196 646.35 194.65Q644.85 193.15 644.85 190.6L645 189.25Q644.7 188.05 644.7 187.15Q644.7 183.55 648.9 175Q649.95 173.35 651.9 168.7Q653.25 165.25 654.6 162.7Q655.05 161.95 658.65 155.65Q662.4 149.2 665.7 140.65Q664.5 141.85 659.55 147.7Q655.8 152.2 653.7 154Q651.75 155.8 649.5 155.65Q647.4 155.2 644.7 153.1Q642.15 150.85 641.4 148.45Q640.95 145.9 640.95 142.9Q640.95 136.15 642.9 124.6Q644.1 119.05 644.1 116.8Q644.1 114.25 643.35 112.9Q642.6 111.4 641.25 110.2Q640.2 109.3 640.2 108.25Q640.2 106.9 641.55 105.55Q642.9 104.05 644.7 103.15Q647.4 102.55 648.3 102.55Q650.85 102.55 653.55 105.4Q653.85 106 654.9 107.8Q655.95 109.45 656.55 111.55Q657.15 113.5 657.15 116.05Q657.15 116.8 656.4 126.85L654.75 132.85Q653.85 136 653.25 138.25Q652.8 140.5 653.25 140.5Q657.6 136.9 660.6 133.45Q663.75 130 669.45 122.2Q670.05 121.15 671.7 118.15Q673.5 115 674.4 112.3Q675.45 110.2 676.8 108.1Q678.3 106 678.9 105.85Q679.8 105.55 682.2 106.45Q684.75 107.35 684.9 107.8Q684.9 107.95 687.6 108.25Q690.45 108.4 690.45 108.85Q690.45 109.15 688.2 114.25Q685.05 121.6 685.2 121.9Q685.65 122.5 683.55 127Q681.6 131.5 681.3 132.25Q677.55 144.25 673.2 151.75Q671.7 154.45 666 167.5L664.8 170.35Q663.3 173.65 661.5 178Q659.7 182.2 658.35 185.5Q657.45 187.3 657 188.5Q656.7 189.55 656.4 190.15Q656.1 193 655.05 194.35Q654.3 195.1 652.95 195.4Q651.6 195.7 650.4 195.7Q649.35 195.7 649.05 195.7Z" />
</svg>